<svg width="34" height="34" viewBox="0 0 34 34" fill="none" xmlns="http://www.w3.org/2000/svg">
<path d="M17.0666 0.333107C7.96663 0.333107 0.54996 7.74977 0.54996 16.8498C0.54996 19.7664 1.31663 22.5998 2.74996 25.0998L0.416626 33.6664L9.16662 31.3664C11.5833 32.6831 14.3 33.3831 17.0666 33.3831C26.1666 33.3831 33.5833 25.9664 33.5833 16.8664C33.5833 12.4498 31.8666 8.29977 28.75 5.18311C27.222 3.63965 25.4019 2.41589 23.396 1.58319C21.3901 0.750498 19.2385 0.325541 17.0666 0.333107ZM17.0833 3.11644C20.75 3.11644 24.1833 4.54977 26.7833 7.14977C28.0593 8.42536 29.071 9.9403 29.7602 11.6077C30.4495 13.2751 30.8028 15.0622 30.8 16.8664C30.8 24.4331 24.6333 30.5831 17.0666 30.5831C14.6 30.5831 12.1833 29.9331 10.0833 28.6664L9.58329 28.3831L4.38329 29.7498L5.76663 24.6831L5.43329 24.1498C4.05653 21.9642 3.32831 19.4328 3.33329 16.8498C3.34996 9.2831 9.49996 3.11644 17.0833 3.11644ZM11.2166 9.21644C10.95 9.21644 10.5 9.31644 10.1166 9.73311C9.74996 10.1498 8.66662 11.1664 8.66662 13.1831C8.66662 15.2164 10.15 17.1664 10.3333 17.4498C10.5666 17.7331 13.2666 21.8998 17.4166 23.6664C18.4 24.1164 19.1666 24.3664 19.7666 24.5498C20.75 24.8664 21.65 24.8164 22.3666 24.7164C23.1666 24.5998 24.8 23.7164 25.15 22.7498C25.5 21.7831 25.5 20.9664 25.4 20.7831C25.2833 20.6164 25.0166 20.5164 24.6 20.3331C24.1833 20.0998 22.15 19.0998 21.7833 18.9664C21.4 18.8331 21.1666 18.7664 20.85 19.1664C20.5833 19.5831 19.7833 20.5164 19.55 20.7831C19.3 21.0664 19.0666 21.0998 18.6666 20.8998C18.2333 20.6831 16.9 20.2498 15.3333 18.8498C14.1 17.7498 13.2833 16.3998 13.0333 15.9831C12.8333 15.5831 13.0166 15.3331 13.2166 15.1498C13.4 14.9664 13.6666 14.6664 13.8333 14.4164C14.05 14.1831 14.1166 13.9998 14.25 13.7331C14.3833 13.4498 14.3166 13.2164 14.2166 13.0164C14.1166 12.8331 13.2833 10.7664 12.9333 9.94977C12.6 9.14977 12.2666 9.24977 12 9.23311C11.7666 9.23311 11.5 9.21644 11.2166 9.21644Z" fill="#AF9678"/>
</svg>
