<svg width="35" height="32" viewBox="0 0 35 32" fill="none" xmlns="http://www.w3.org/2000/svg">
<path d="M33.1338 0.958883C32.7893 0.661473 32.3701 0.463969 31.9214 0.387761C31.4728 0.311553 31.0118 0.359545 30.5885 0.52654L1.75145 11.8554C1.24889 12.053 0.823794 12.4079 0.539745 12.8671C0.255697 13.3263 0.127969 13.8652 0.17567 14.403C0.223371 14.9409 0.443936 15.4489 0.804369 15.851C1.1648 16.253 1.64573 16.5276 2.1752 16.6336L9.50004 18.0989V27.2478C9.49961 27.7424 9.64597 28.2261 9.92059 28.6375C10.1952 29.0489 10.5857 29.3695 11.0427 29.5588C11.4997 29.7481 12.0026 29.7975 12.4877 29.7008C12.9728 29.6041 13.4182 29.3657 13.7677 29.0156L17.8214 24.962L23.9739 30.3761C24.4269 30.7784 25.0114 31.0009 25.6172 31.0017C25.8806 31.0014 26.1422 30.9599 26.3927 30.8787C26.8059 30.7477 27.1775 30.5106 27.4705 30.1911C27.7634 29.8715 27.9675 29.4808 28.0622 29.0578L33.9394 3.41217C34.0418 2.96868 34.0208 2.50564 33.8788 2.07322C33.7368 1.6408 33.4792 1.25533 33.1338 0.958883ZM10.4604 15.7412L2.66582 14.1823L24.491 5.60795L10.4604 15.7412ZM12 27.2465V19.839L15.9407 23.3067L12 27.2465ZM25.6254 28.4992L12.7516 17.1701L31.2899 3.78154L25.6254 28.4992Z" fill="#AF9678"/>
</svg>
