<svg width="31" height="32" viewBox="0 0 31 32" fill="none" xmlns="http://www.w3.org/2000/svg">
<path d="M15.6249 0C13.2499 0 7.3749 0.25 4.2499 3.25C1.9999 5.375 1.1249 8.625 0.9999 12.5C0.7499 18.625 2.1249 22.5 4.3749 24.5C4.8749 24.875 6.1249 25.875 8.4999 26.625V29.75C8.4999 29.75 8.4999 31 9.2499 31.25C9.3749 31.25 9.4999 31.375 9.6249 31.375C10.3749 31.375 10.9999 30.5 11.8749 29.625C12.6249 28.75 13.2499 28.125 13.6249 27.5H16.3749C18.7499 27.5 24.6249 27.25 27.7499 24.25C29.9999 22 30.8749 18.75 30.8749 14.625C30.9999 14 30.9999 13.25 30.9999 12.5C30.8749 7.875 29.4999 4.75 27.6249 3C26.8749 2.375 23.6249 0 16.6249 0H15.6249V0ZM15.3749 2.375H16.4999C23.1249 2.375 25.6249 4.5 25.8749 4.75C27.3749 6 28.2499 8.75 28.3749 12.375V12.875C28.4999 13.625 28.4999 14.25 28.4999 14.625C28.3749 18.375 27.6249 20.875 26.1249 22.5C23.4999 24.875 17.9999 25 16.4999 25H14.1249L12.1249 27.25L10.8749 28.625L10.6249 29C10.3749 29.25 9.9999 29.75 9.7499 29.875V24.25C7.2499 23.625 6.2499 22.75 5.9999 22.5C4.2499 21 3.2499 17.375 3.4999 12.5V11.25C3.7499 8.25 4.4999 6.25 5.7499 4.875C8.3749 2.5 13.8749 2.375 15.3749 2.375V2.375ZM15.2499 5.125C14.6249 5.125 14.6249 6 15.2499 6C19.8749 6 23.8749 9.125 23.8749 15C23.8749 15.625 24.7499 15.625 24.7499 15C24.7499 8.625 20.4999 5 15.2499 5.125V5.125ZM10.2961 6.28125C10.0129 6.24731 9.72765 6.32536 9.50115 6.49875C8.25115 7.12375 6.9999 8.37625 7.3749 9.75125C7.3749 9.75125 7.6249 10.875 8.9999 13.25C9.7499 14.375 10.3749 15.375 10.9999 16.125C11.6249 17 12.6249 18 13.6249 18.75C15.6249 20.375 18.7499 22 20.1249 22.375C21.3749 22.75 22.7499 21.5 23.3749 20.25C23.6249 19.75 23.4999 19.125 22.9999 18.75C22.2499 18 20.9999 17.125 20.1249 16.625C19.4999 16.25 18.7499 16.5 18.4999 16.875L17.8749 17.625C17.6249 18 16.9999 18 16.9999 18C12.8749 16.875 11.7499 12.625 11.7499 12.625C11.7499 12.625 11.7499 12.125 12.1249 11.75L12.8749 11.125C13.2499 10.875 13.4999 10.125 13.1249 9.5C12.8749 9.125 12.4999 8.375 12.1249 8C11.7499 7.5 10.9999 6.625 10.9999 6.625C10.8102 6.43509 10.5625 6.31409 10.2961 6.28125V6.28125ZM16.1249 7.625C15.4999 7.5 15.3749 8.5 15.9999 8.5C19.4999 8.75 21.4999 11.125 21.3749 14.125C21.2499 14.75 22.2499 14.75 22.2499 14.125C22.3749 10.625 20.1249 7.75 16.1249 7.625V7.625ZM16.4999 10C15.8749 9.875 15.8749 10.875 16.4999 10.875C17.9999 10.875 18.7499 11.75 18.7499 13.25C18.8749 13.875 19.7499 13.875 19.7499 13.25C19.6249 11.25 18.4999 10 16.4999 10Z" fill="#AF9678"/>
</svg>
